# xmcd CD database file
#
# Track frame offsets:
#	150
#	11785
#	26057
#	39558
#	52465
#	67412
#	79956
#	89802
#	102684
#	113644
#	131896
#	148023
#	159940
#	171083
#
# Disc length: 2402 seconds
#
# Revision: 5
# Processed by: cddbd v1.5.2PL0 Copyright (c) Steve Scherf et al.
# Submitted via: CDex 1.70beta2
#
DISCID=d809600e
DTITLE=eeco rijken rapp - boogielicious
DYEAR=2007
DGENRE=Blues
TTITLE0=Bugle Boogie
TTITLE1=Barrelhouse Boogie
TTITLE2=Death Ray Boogie
TTITLE3=Groovy
TTITLE4=Suitcase Blues
TTITLE5=Sixth Avenue Express
TTITLE6=Contemporary Breakdown
TTITLE7=How Long Blues
TTITLE8=Honky Tonk Train Blues
TTITLE9=Autumn Leaves
TTITLE10=Boogie Woogie Stomp
TTITLE11=Boogie Woogie Man
TTITLE12=Swanee River Boogie
TTITLE13=Bookwood Mountain Boogie
EXTD=YEAR: 2007
EXTT0=
EXTT1=
EXTT2=
EXTT3=
EXTT4=
EXTT5=
EXTT6=
EXTT7=
EXTT8=
EXTT9=
EXTT10=
EXTT11=
EXTT12=
EXTT13=
PLAYORDER=
